PathFileType	4	(X/Y/Z)	C:/Users/opensim2020/Desktop/walking_exp_matlab/subject03/subject03_trc/subject03_walking16_run_cyclic.trc	
DataRate	CameraRate	NumFrames	NumMarkers	Units	OrigDataRate	OrigDataStartFrame	OrigNumFrames	
100.00	100.00	6	49	mm	100.00	251	67	
Frame#	Time	RKNE			RTOE			RWRB			LTHI			RELB			RFRM			RUPA			RASI			LTIB			RWRA			RTHI			LSHO			LTOE			RTIB			LWRA			CLAV			LASI			RSHO			RFHD			STRN			LHEE			RFIN			RBHD			LFRM			C7			LWRB			LFIN			LUPA			LBHD			LELB			RANK			RHEE			RBAK			LPSI			T10			LFHD			RPSI			LKNE			LANK			*39			*40			*41			*42			*43			*44			*45			*46			*47			*48			
		X1	Y1	Z1	X2	Y2	Z2	X3	Y3	Z3	X4	Y4	Z4	X5	Y5	Z5	X6	Y6	Z6	X7	Y7	Z7	X8	Y8	Z8	X9	Y9	Z9	X10	Y10	Z10	X11	Y11	Z11	X12	Y12	Z12	X13	Y13	Z13	X14	Y14	Z14	X15	Y15	Z15	X16	Y16	Z16	X17	Y17	Z17	X18	Y18	Z18	X19	Y19	Z19	X20	Y20	Z20	X21	Y21	Z21	X22	Y22	Z22	X23	Y23	Z23	X24	Y24	Z24	X25	Y25	Z25	X26	Y26	Z26	X27	Y27	Z27	X28	Y28	Z28	X29	Y29	Z29	X30	Y30	Z30	X31	Y31	Z31	X32	Y32	Z32	X33	Y33	Z33	X34	Y34	Z34	X35	Y35	Z35	X36	Y36	Z36	X37	Y37	Z37	X38	Y38	Z38	X39	Y39	Z39	X40	Y40	Z40	X41	Y41	Z41	X42	Y42	Z42	X43	Y43	Z43	X44	Y44	Z44	X45	Y45	Z45	X46	Y46	Z46	X47	Y47	Z47	X48	Y48	Z48	X49	Y49	Z49	

58	0.570	353.57474	389.11243	443.75775	276.78516	364.90967	32.36345	507.49008	309.38666	848.16437	75.44611	257.15771	556.89130	549.95453	170.98238	1018.56146	526.85266	250.52437	923.19836	519.67377	180.05087	1113.60364	359.88177	282.19653	882.97253	103.90712	77.08823	345.55313	467.20859	322.20987	883.13678	398.74368	298.53818	598.45294	103.53012	277.86993	1329.46204	158.98747	-157.90865	180.61794	347.20084	322.80594	263.79431	169.09012	389.01511	942.38763	255.78717	315.22226	1279.09949	126.35136	296.79752	860.89490	408.08041	252.00861	1297.72034	320.45511	281.34753	1576.95313	246.88219	352.61871	1107.74060	171.90050	-162.13181	367.30917	485.48972	376.27841	827.87073	311.62122	179.78749	1495.24268	66.22633	336.42175	983.53583	244.63641	190.33153	1351.96667	120.26028	410.13101	922.76776	179.68333	458.21521	884.89795	6.05491	256.04584	1148.62427	181.97198	193.36449	1487.18823	-2.33165	257.90234	1036.51208	291.95074	230.89912	71.46487	241.08110	178.98508	46.68840	324.91391	126.80486	1180.17065	158.54573	134.47324	895.92670	224.47778	142.02374	1048.59534	188.49718	299.75406	1569.61926	307.55341	125.24167	917.17004	101.87064	264.57516	377.62930	135.72116	-126.05696	327.30640																						226.77615	194.71417	1601.36316						 
59	0.580	351.77155	411.14093	438.90018	276.83923	364.75537	32.19068	504.56720	363.38504	845.95172	74.34859	302.11115	555.39673	550.35083	219.60072	1010.71173	525.35724	302.13943	917.60010	520.81140	222.50630	1105.85327	360.60626	312.26337	877.77069	102.41325	134.69612	342.88086	463.33783	373.03516	881.01306	398.50809	323.38000	594.61957	102.51328	308.81580	1324.31262	154.18275	-93.41190	174.43372	347.02335	335.05640	260.20728	157.48717	410.42340	917.25177	256.02835	347.33539	1274.37537	126.83202	326.27145	855.77094	409.05215	286.00433	1292.85132	321.72708	314.14578	1572.67212	247.01285	383.19733	1102.80371	169.70259	-107.02645	360.23843	480.61731	430.15985	829.84698	313.50500	212.50043	1491.02905	58.86100	357.32523	969.24493	245.71161	223.88281	1349.20801	106.15842	429.89429	901.62799	160.95615	475.83093	855.23334	6.40483	280.61462	1143.61060	183.75826	225.21690	1482.92114	-3.27489	279.32269	1030.75488	292.97476	232.71754	71.77230	242.41544	179.11720	48.34635	326.38144	158.86766	1176.45984	159.29106	163.43034	892.32416	225.08563	171.97543	1045.67554	189.39839	331.87280	1565.42261	308.30426	155.25151	915.29181	101.04684	320.27310	377.12991	133.61378	-68.73324	321.71466																						228.50816	227.09158	1597.04346						 
60	0.590	351.02338	430.51706	433.11551	276.90744	364.51602	32.05949	499.92361	418.03589	848.46405	73.65857	345.84619	556.03040	549.79370	266.87299	1005.91553	522.75909	353.37128	916.60773	521.38055	263.62222	1100.50903	361.19421	341.76617	874.31976	101.00311	192.75906	341.19315	458.29697	424.34805	883.55231	398.95813	348.86697	592.27820	102.14080	339.63226	1320.55737	150.66405	-26.45804	165.21274	346.67786	345.51025	255.83157	144.46846	429.55457	897.11926	256.33228	379.16687	1270.87415	127.17273	355.89508	852.64801	409.46176	320.18320	1289.79541	323.01917	346.94281	1569.02502	247.23137	413.83612	1098.89429	166.90904	-51.85868	349.87531	474.31204	484.78928	836.72003	315.16180	245.27527	1487.32141	50.68253	376.33713	959.26312	246.48830	256.89032	1346.88306	91.31109	447.69470	885.20422	141.76935	491.10498	831.61859	5.62477	304.01550	1140.80359	185.32069	257.20557	1479.54138	-6.39955	299.06369	1028.03027	293.44614	234.08466	72.26540	243.51190	178.88104	50.67959	328.14874	191.38129	1173.49939	159.72508	192.97177	890.06604	226.33401	202.26184	1043.44861	190.69151	363.96329	1562.00916	308.47168	184.96938	913.87115	100.79124	376.34305	379.11383	130.94400	-10.24349	313.64807																						230.39818	259.55984	1593.57959						 
61	0.600	351.20334	446.44031	425.40601	277.04108	364.30118	31.91444	493.69995	472.21057	855.05475	73.42419	388.31827	558.93689	549.15509	313.11279	1002.50159	518.97107	404.13626	919.26843	521.57935	303.75476	1097.10840	361.74930	371.65097	872.43555	100.04330	250.99908	339.81277	452.64484	475.49170	891.10394	399.95499	373.93491	589.71454	102.45602	370.35190	1318.35144	149.08049	43.03090	153.91132	346.28082	354.45828	251.50160	130.73210	446.77493	882.86670	256.50272	411.02921	1268.31677	127.10870	385.03763	851.79327	409.57034	354.03101	1288.54016	324.20923	379.77414	1566.41833	247.20724	444.67801	1096.22534	163.86884	3.66454	335.93286	466.94034	539.21265	848.38892	316.56833	278.12457	1484.58215	41.77405	394.49280	953.09222	247.02408	288.45477	1344.77722	76.32340	463.84683	873.95959	123.20088	503.83240	814.04736	4.21058	326.72687	1141.00903	186.55684	289.38220	1477.38159	-10.69862	317.60886	1028.19458	293.54678	235.03923	72.86420	243.55957	179.07774	52.93834	330.12753	224.23189	1171.55322	160.23047	222.91122	889.05981	227.79254	232.87732	1041.82031	191.49110	396.25259	1560.01880	308.37143	214.72739	912.67493	101.36703	432.14075	383.79074	128.62424	48.77980	302.22934																						231.97581	292.28030	1591.13538						 
62	0.610	352.14316	459.82709	417.40912	277.27771	364.08081	31.76029	486.29391	525.73254	865.48895	73.63866	429.76083	563.57983	548.13007	358.56216	1000.80878	514.31989	454.19931	924.83759	521.39764	343.35623	1095.35364	362.12659	402.40683	871.71405	99.45547	308.76953	338.08133	446.16339	525.83508	902.53217	400.68750	397.33658	586.61279	102.93240	400.99069	1317.64832	148.47090	114.89896	141.29581	346.60110	361.45050	247.71555	116.84698	463.03079	874.84961	256.33813	442.95721	1267.02612	125.28590	413.17856	850.91193	409.88336	387.39917	1288.79102	325.23557	412.75613	1565.08325	247.07857	475.65088	1094.95007	160.95164	59.48923	318.93588	458.82510	592.58563	864.08746	317.74112	310.93259	1483.32202	32.01448	411.54013	951.10175	247.56635	319.04932	1343.16638	61.38238	478.57690	867.98102	104.84608	515.83014	803.18628	2.06263	348.67075	1143.79138	187.57718	321.53650	1476.69958	-16.31991	335.85172	1031.93994	293.88074	235.93275	73.73606	244.00520	179.19084	55.25151	332.10165	257.44269	1170.87744	160.65869	253.01717	888.68213	229.42055	263.97049	1040.89331	192.23485	428.64294	1559.18262	308.31003	244.87233	911.80109	101.61374	487.08884	391.83676	126.65601	107.82928	288.89407																						233.79694	324.74442	1590.19250						 
63	0.620	353.28217	471.10300	410.23325	277.52411	363.87399	31.63398	478.13412	578.08771	878.91309	74.38040	469.92184	569.56390	546.26581	403.38156	1001.19019	509.12015	503.36041	932.76733	520.65674	382.92181	1094.86670	364.50650	431.91565	870.46661	99.02465	365.91919	336.31989	439.56735	575.32166	917.18079	401.05692	418.18912	582.97845	103.07996	431.18854	1318.59192	148.89180	189.14694	127.96109	347.43973	367.12354	244.93823	102.84494	479.03839	872.78192	255.91724	474.93170	1267.10901	127.22530	445.59137	852.74805	410.05435	420.92151	1290.33081	325.92059	445.73273	1565.20056	246.80733	506.86905	1095.17200	158.65077	116.24345	298.90558	450.97931	644.92053	883.12720	318.60056	343.64871	1483.71985	21.79978	427.80142	952.83905	248.22583	349.81296	1343.27258	46.87663	492.44302	866.50299	87.25098	527.97266	798.48273	-0.50741	369.95920	1149.23816	188.33786	353.85983	1477.62793	-21.97793	353.05820	1038.62866	294.96118	236.72874	75.08475	245.58270	179.24664	58.54232	334.23981	290.92542	1171.52026	161.08066	283.85785	889.34448	231.19362	295.47202	1041.33826	193.06628	461.00195	1559.65845	308.54803	275.08676	911.92896	102.40411	540.61749	402.56573	125.44093	168.13309	273.15881																						234.94876	357.29532	1590.82202						 
